<svg xmlns="http://www.w3.org/2000/svg" viewBox="0 0 100 100">
  <defs>
    <!-- Player color definition - this will be replaced dynamically -->
    <linearGradient id="playerColor">
      <stop offset="0%" stop-color="#888888"/>
      <stop offset="100%" stop-color="#666666"/>
    </linearGradient>
    
    <clipPath id="hexClip">
      <polygon points="50,15 85,32.5 85,67.5 50,85 15,67.5 15,32.5"/>
    </clipPath>
    
    <linearGradient id="groundGrad" x1="0%" y1="0%" x2="100%" y2="100%">
      <stop offset="0%" stop-color="#a0522d"/>
      <stop offset="50%" stop-color="#8b7355"/>
      <stop offset="100%" stop-color="#654321"/>
    </linearGradient>
  </defs>
  
  <g clip-path="url(#hexClip)">
    <!-- Base terrain -->
    <polygon points="50,15 85,32.5 85,67.5 50,85 15,67.5 15,32.5" fill="url(#groundGrad)"/>
    
    <!-- Main warehouse (TINTABLE) -->
    <g fill="url(#playerColor)" stroke="#2a2a2a" stroke-width="1">
      <rect x="30" y="25" width="40" height="25"/>
    </g>
    
    <!-- Warehouse roof (not tintable) -->
    <polygon points="30,25 50,15 70,25" fill="#696969" stroke="#1a1a1a" stroke-width="0.5"/>
    
    <!-- Warehouse details (not tintable) -->
    <g fill="#1a1a1a" opacity="0.8">
      <rect x="32" y="28" width="3" height="4"/>
      <rect x="37" y="28" width="3" height="4"/>
      <rect x="42" y="28" width="3" height="4"/>
      <rect x="47" y="28" width="3" height="4"/>
      <rect x="52" y="28" width="3" height="4"/>
      <rect x="57" y="28" width="3" height="4"/>
      <rect x="62" y="28" width="3" height="4"/>
      <rect x="67" y="28" width="3" height="4"/>
      
      <rect x="32" y="35" width="3" height="4"/>
      <rect x="37" y="35" width="3" height="4"/>
      <rect x="42" y="35" width="3" height="4"/>
      <rect x="47" y="35" width="3" height="4"/>
      <rect x="52" y="35" width="3" height="4"/>
      <rect x="57" y="35" width="3" height="4"/>
      <rect x="62" y="35" width="3" height="4"/>
      <rect x="67" y="35" width="3" height="4"/>
      
      <rect x="32" y="42" width="3" height="4"/>
      <rect x="37" y="42" width="3" height="4"/>
      <rect x="42" y="42" width="3" height="4"/>
      <rect x="52" y="42" width="3" height="4"/>
      <rect x="57" y="42" width="3" height="4"/>
      <rect x="62" y="42" width="3" height="4"/>
      <rect x="67" y="42" width="3" height="4"/>
      
      <rect x="47" y="46" width="6" height="2" fill="#333333"/>
    </g>
    
    <!-- Smaller storage buildings (TINTABLE) -->
    <g fill="url(#playerColor)" stroke="#2a2a2a" stroke-width="0.8">
      <rect x="15" y="55" width="20" height="15"/>
      <rect x="65" y="55" width="20" height="15"/>
    </g>
    
    <!-- Storage building details (not tintable) -->
    <g fill="#1a1a1a" opacity="0.8">
      <rect x="17" y="57" width="2" height="3"/>
      <rect x="20" y="57" width="2" height="3"/>
      <rect x="23" y="57" width="2" height="3"/>
      <rect x="26" y="57" width="2" height="3"/>
      <rect x="29" y="57" width="2" height="3"/>
      <rect x="32" y="57" width="2" height="3"/>
      
      <rect x="17" y="62" width="2" height="3"/>
      <rect x="20" y="62" width="2" height="3"/>
      <rect x="23" y="62" width="2" height="3"/>
      <rect x="26" y="62" width="2" height="3"/>
      <rect x="29" y="62" width="2" height="3"/>
      <rect x="32" y="62" width="2" height="3"/>
      
      <rect x="17" y="67" width="2" height="2"/>
      <rect x="20" y="67" width="2" height="2"/>
      <rect x="23" y="67" width="2" height="2"/>
      <rect x="26" y="67" width="2" height="2"/>
      <rect x="29" y="67" width="2" height="2"/>
      <rect x="32" y="67" width="2" height="2"/>
      
      <rect x="67" y="57" width="2" height="3"/>
      <rect x="70" y="57" width="2" height="3"/>
      <rect x="73" y="57" width="2" height="3"/>
      <rect x="76" y="57" width="2" height="3"/>
      <rect x="79" y="57" width="2" height="3"/>
      <rect x="82" y="57" width="2" height="3"/>
      
      <rect x="67" y="62" width="2" height="3"/>
      <rect x="70" y="62" width="2" height="3"/>
      <rect x="73" y="62" width="2" height="3"/>
      <rect x="76" y="62" width="2" height="3"/>
      <rect x="79" y="62" width="2" height="3"/>
      <rect x="82" y="62" width="2" height="3"/>
      
      <rect x="67" y="67" width="2" height="2"/>
      <rect x="70" y="67" width="2" height="2"/>
      <rect x="73" y="67" width="2" height="2"/>
      <rect x="76" y="67" width="2" height="2"/>
      <rect x="79" y="67" width="2" height="2"/>
      <rect x="82" y="67" width="2" height="2"/>
    </g>
    
    <!-- Loading dock (TINTABLE) -->
    <g fill="url(#playerColor)" stroke="#2a2a2a" stroke-width="0.6">
      <rect x="35" y="50" width="30" height="8"/>
    </g>
    
    <!-- Office building (TINTABLE) -->
    <g fill="url(#playerColor)" stroke="#2a2a2a" stroke-width="0.5">
      <rect x="75" y="30" width="8" height="12"/>
    </g>
    
    <!-- Office details (not tintable) -->
    <g fill="#1a1a1a" opacity="0.8">
      <rect x="76" y="32" width="1.5" height="2"/>
      <rect x="78.5" y="32" width="1.5" height="2"/>
      <rect x="81" y="32" width="1.5" height="2"/>
      <rect x="76" y="36" width="1.5" height="2"/>
      <rect x="78.5" y="36" width="1.5" height="2"/>
      <rect x="81" y="36" width="1.5" height="2"/>
      <rect x="77" y="40" width="4" height="1" fill="#333333"/>
    </g>
    
    <!-- Supply crates (not tintable) -->
    <g fill="#8b4513" stroke="#1a1a1a" stroke-width="0.3">
      <rect x="25" y="60" width="4" height="4"/>
      <rect x="25" y="64" width="4" height="4"/>
      <rect x="40" y="62" width="4" height="4"/>
      <rect x="56" y="62" width="4" height="4"/>
      <rect x="71" y="60" width="4" height="4"/>
      <rect x="71" y="64" width="4" height="4"/>
    </g>
    
    <!-- Additional supply stacks (not tintable) -->
    <g fill="#daa520" stroke="#1a1a1a" stroke-width="0.3">
      <rect x="30" y="72" width="3" height="3"/>
      <rect x="35" y="72" width="3" height="3"/>
      <rect x="62" y="72" width="3" height="3"/>
      <rect x="67" y="72" width="3" height="3"/>
    </g>
    
    <!-- Metal containers (not tintable) -->
    <g fill="#c0c0c0" stroke="#1a1a1a" stroke-width="0.3">
      <rect x="50" y="72" width="3" height="3"/>
      <rect x="54" y="72" width="3" height="3"/>
    </g>
    
    <!-- Forklift (not tintable) -->
    <g fill="#ffff00" stroke="#1a1a1a" stroke-width="0.3">
      <rect x="45" y="72" width="4" height="2"/>
      <rect x="46" y="70" width="1" height="2"/>
      <circle cx="46" cy="74.5" r="0.4" fill="#333333"/>
      <circle cx="48" cy="74.5" r="0.4" fill="#333333"/>
    </g>
    
    <!-- Truck loading bay (not tintable) -->
    <g fill="#4a5d23" stroke="#1a1a1a" stroke-width="0.3">
      <rect x="20" y="45" width="8" height="4"/>
      <circle cx="22" cy="50" r="0.6" fill="#333333"/>
      <circle cx="26" cy="50" r="0.6" fill="#333333"/>
    </g>
    
    <!-- Additional vehicles (not tintable) -->
    <g fill="#ff0000" stroke="#1a1a1a" stroke-width="0.3">
      <rect x="72" y="45" width="6" height="3"/>
      <circle cx="73" cy="49" r="0.4" fill="#333333"/>
      <circle cx="77" cy="49" r="0.4" fill="#333333"/>
    </g>
    
    <!-- Security fence (not tintable) -->
    <g stroke="#8b8b8b" stroke-width="0.5" fill="none" opacity="0.7">
      <polygon points="18,20 82,20 82,80 18,80" stroke-dasharray="2,2"/>
    </g>
    
    <!-- Fence posts (not tintable) -->
    <g fill="#8b8b8b" stroke="#1a1a1a" stroke-width="0.2">
      <rect x="17.5" y="18" width="1" height="4"/>
      <rect x="30" y="18" width="1" height="4"/>
      <rect x="50" y="18" width="1" height="4"/>
      <rect x="70" y="18" width="1" height="4"/>
      <rect x="81.5" y="18" width="1" height="4"/>
      
      <rect x="81.5" y="30" width="1" height="4"/>
      <rect x="81.5" y="50" width="1" height="4"/>
      <rect x="81.5" y="70" width="1" height="4"/>
      <rect x="81.5" y="78" width="1" height="4"/>
      
      <rect x="70" y="78" width="1" height="4"/>
      <rect x="50" y="78" width="1" height="4"/>
      <rect x="30" y="78" width="1" height="4"/>
      <rect x="17.5" y="78" width="1" height="4"/>
      
      <rect x="17.5" y="70" width="1" height="4"/>
      <rect x="17.5" y="50" width="1" height="4"/>
      <rect x="17.5" y="30" width="1" height="4"/>
    </g>
    
    <!-- Gate (not tintable) -->
    <g fill="#696969" stroke="#1a1a1a" stroke-width="0.4">
      <rect x="48" y="78" width="4" height="1"/>
      <rect x="49" y="76" width="2" height="2"/>
    </g>
  </g>
</svg>