<svg viewBox="0 0 100 100" xmlns="http://www.w3.org/2000/svg">
  <defs>
    <!-- Player color definition - this will be replaced dynamically -->
    <linearGradient id="playerColor">
      <stop offset="0%" stop-color="#888888"/>
      <stop offset="100%" stop-color="#666666"/>
    </linearGradient>
    <radialGradient id="grassGrad" cx="50%" cy="30%">
      <stop offset="0%" stop-color="#7dd857"/>
      <stop offset="100%" stop-color="#4a9c2d"/>
    </radialGradient>
  </defs>
  
  <polygon points="50,0 100,17.5 100,82.5 50,100 0,82.5 0,17.5" fill="url(#grassGrad)" stroke="#2e7d32" stroke-width="2"/>
  <!-- Temple building -->
  <rect x="30" y="35" width="40" height="30" fill="url(#playerColor)" stroke="#e0e0e0" stroke-width="1"/>
  <!-- Temple roof -->
  <polygon points="28,35 50,25 72,35" fill="url(#playerColor)"/>
  <!-- Holy symbol (ankh/cross variant) -->
  <circle cx="50" cy="45" r="4" fill="none" stroke="#ffc107" stroke-width="2"/>
  <line x1="50" y1="49" x2="50" y2="58" stroke="#ffc107" stroke-width="2"/>
  <line x1="47" y1="52" x2="53" y2="52" stroke="#ffc107" stroke-width="2"/>
  <!-- Columns -->
  <rect x="32" y="35" width="3" height="25" fill="#e0e0e0"/>
  <rect x="65" y="35" width="3" height="25" fill="#e0e0e0"/>
  <!-- Healing herbs garden -->
  <circle cx="25" cy="55" r="3" fill="#4caf50"/>
  <circle cx="75" cy="55" r="3" fill="#4caf50"/>
  <circle cx="23" cy="53" r="1" fill="#e91e63"/>
  <circle cx="77" cy="53" r="1" fill="#9c27b0"/>
  <!-- Entrance steps -->
  <rect x="45" y="60" width="10" height="2" fill="#bdbdbd"/>
  <rect x="47" y="62" width="6" height="2" fill="#9e9e9e"/>
</svg>
