<svg xmlns="http://www.w3.org/2000/svg" viewBox="0 0 100 100">
  <defs>
    <linearGradient id="playerColor">
      <stop offset="0%" stop-color="#888888"/>
      <stop offset="100%" stop-color="#666666"/>
    </linearGradient>
    <clipPath id="hexClip">
      <polygon points="50,15 85,32.5 85,67.5 50,85 15,67.5 15,32.5"/>
    </clipPath>
  </defs>
  
  <g clip-path="url(#hexClip)">
    <ellipse cx="50" cy="75" rx="12" ry="3" fill="#000000" opacity="0.2"/>
    
    <!-- Boots -->
    <g fill="#1a1410" stroke="#000000" stroke-width="0.5">
      <path d="M 44,68 L 44,76 L 49,76 L 49,68 Z"/>
      <path d="M 51,68 L 51,76 L 56,76 L 56,68 Z"/>
    </g>
    
    <!-- Legs (TINTABLE AREA) -->
    <g>
      <path d="M 44.5,55 L 44.5,69 L 49,69 L 49,55 Z" fill="url(#playerColor)" stroke="#2a2a2a" stroke-width="0.8"/>
      <path d="M 51,55 L 51,69 L 55.5,69 L 55.5,55 Z" fill="url(#playerColor)" stroke="#2a2a2a" stroke-width="0.8"/>
      
      <!-- Medical pouches -->
      <rect x="44" y="57" width="3" height="4" fill="none" stroke="#1a1a1a" stroke-width="0.5"/>
      <rect x="52.5" y="57" width="3" height="4" fill="none" stroke="#1a1a1a" stroke-width="0.5"/>
    </g>
    
    <!-- Body/Torso (TINTABLE AREA) -->
    <g>
      <path d="M 43,38 L 43,56 L 57,56 L 57,38 Q 50,36 43,38 Z" fill="url(#playerColor)" stroke="#2a2a2a" stroke-width="1"/>
      
      <!-- Medical vest -->
      <g stroke="#1a1a1a" stroke-width="0.6" fill="none">
        <path d="M 42,40 L 42,54 L 58,54 L 58,40 Q 50,38 42,40 Z"/>
        <!-- Medical supplies -->
        <rect x="44" y="42" width="3" height="3"/>
        <rect x="48.5" y="42" width="3" height="3"/>
        <rect x="53" y="42" width="3" height="3"/>
      </g>
      
      <!-- Red cross symbol -->
      <g fill="#DC143C" stroke="#8B0000" stroke-width="0.3">
        <rect x="49" y="45" width="2" height="6"/>
        <rect x="47" y="47" width="6" height="2"/>
      </g>
    </g>
    
    <!-- Arms (TINTABLE AREA) -->
    <g>
      <path d="M 39,41 Q 36,45 37,52 Q 39,54 41,52 L 42,42 Z" fill="url(#playerColor)" stroke="#2a2a2a" stroke-width="0.8"/>
      <path d="M 61,41 Q 64,45 63,52 Q 61,54 59,52 L 58,42 Z" fill="url(#playerColor)" stroke="#2a2a2a" stroke-width="0.8"/>
      
      <!-- Hands -->
      <circle cx="37" cy="52" r="2.5" fill="#d4a373" stroke="#a08060" stroke-width="0.5"/>
      <circle cx="63" cy="52" r="2.5" fill="#d4a373" stroke="#a08060" stroke-width="0.5"/>
    </g>
    
    <!-- Medical bag -->
    <g transform="translate(63, 48)">
      <rect x="0" y="0" width="8" height="6" fill="#ffffff" stroke="#DC143C" stroke-width="0.8"/>
      <rect x="3" y="1" width="1" height="4" fill="#DC143C"/>
      <rect x="1" y="2.5" width="4" height="1" fill="#DC143C"/>
    </g>
    
    <!-- Head and helmet -->
    <g>
      <rect x="48" y="35" width="4" height="4" fill="#d4a373" stroke="#a08060" stroke-width="0.5"/>
      <ellipse cx="50" cy="30" rx="6" ry="7" fill="#d4a373" stroke="#a08060" stroke-width="0.5"/>
      
      <!-- Helmet (TINTABLE) -->
      <path d="M 43,28 Q 50,24 57,28 L 57,34 Q 50,36 43,34 Z" fill="url(#playerColor)" stroke="#2a2a2a" stroke-width="1"/>
      
      <!-- Medical cross on helmet -->
      <g fill="#DC143C" stroke="#8B0000" stroke-width="0.2">
        <rect x="49" y="27" width="2" height="6"/>
        <rect x="47" y="29" width="6" height="2"/>
      </g>
    </g>
    
    <!-- Face -->
    <g>
      <ellipse cx="47" cy="29" rx="1.2" ry="1" fill="#ffffff" stroke="#8a7a6a" stroke-width="0.3"/>
      <circle cx="47" cy="29" r="0.7" fill="#4a5a6a"/>
      <ellipse cx="53" cy="29" rx="1.2" ry="1" fill="#ffffff" stroke="#8a7a6a" stroke-width="0.3"/>
      <circle cx="53" cy="29" r="0.7" fill="#4a5a6a"/>
      <path d="M 48,33 Q 50,33.5 52,33" stroke="#a08060" stroke-width="0.5" fill="none"/>
    </g>
  </g>
</svg>